PathFileType	4	(X/Y/Z)	OpenSim_Sub04_EMGBaseline_Accel.trc
DataRate	CameraRate	NumFrames	NumMarkers	Units	OrigDataRate	OrigDataStartFrame	OrigNumFrames
100	100	24	8	m	100	5956	7941
Frame#	Time	torso_imu_offset_imu	pelvis_imu_offset_imu	tibia_r_imu_offset_imu	femur_r_imu_offset_imu	tibia_l_imu_offset_imu	femur_l_imu_offset_imu	toes_r_imu_offset_imu	toes_l_imu_offset_imu
				X1	Y1	Z1	X2	Y2	Z2	X3	Y3	Z3	X4	Y4	Z4	X5	Y5	Z5	X6	Y6	Z6	X7	Y7	Z7	X8		Y8	Z8	

5956	59.55000000	-7.65020465	-0.87945227	8.30630298	9.36343005	-0.55499840	2.65468708	7.40235791	6.67084018	1.00068493	7.56174769	-2.71006994	2.04718777	9.56196814	-1.77193414	-0.48781582	8.97818291	1.79376080	-2.81825101	15.33991048	-1.04904165	8.60166660	5.61153130	3.35183488	10.07570048
5957	59.56000000	-7.51994003	-0.85582464	8.33598956	9.26803106	-0.58898383	2.67732841	7.86080730	6.40606637	1.14285728	7.61957909	-2.98082357	2.17565088	9.50150381	-1.77427972	-0.36627813	8.98550683	1.97610950	-2.87792348	15.05918515	-0.80730581	8.09849650	5.48928665	3.27200968	10.13680482
5958	59.57000000	-7.49783591	-0.83471033	8.27143029	9.16733510	-0.63974430	2.73991416	8.44129801	6.01078928	0.93362592	7.64040964	-3.15081261	2.37657316	9.61931948	-1.76826819	-0.32921571	9.02128077	1.83597512	-2.90116906	14.50676506	-0.65928705	7.16511701	5.17703229	3.27543109	10.39179247
5959	59.58000000	-7.51407868	-0.85603130	8.33301984	9.04122721	-0.73743955	2.74367761	9.09659848	5.28553135	0.91411306	7.66221891	-3.29815501	2.47413162	9.84938971	-1.66654846	-0.26365837	9.12686615	1.90902439	-2.88831019	15.03121335	-0.71602769	6.30540457	4.96873539	3.23072301	10.58893781
5960	59.59000000	-7.55869363	-0.85767635	8.33210488	8.95986078	-0.79459318	2.70586553	9.31811458	4.45739770	1.41398703	7.77665595	-3.48358577	2.48875264	9.96524359	-1.43293354	-0.05705066	9.21294039	1.86139893	-2.90044608	16.06507457	-0.81451032	5.58821248	5.53216058	3.35356736	10.08048481
5961	59.60000000	-7.64667133	-0.84863781	8.33153060	8.94610263	-0.87961368	2.72792771	9.01205247	4.03701176	1.65451533	7.90332240	-3.81184319	2.53965081	9.89995893	-1.02796851	-0.20473203	9.28455028	1.75696163	-2.91311156	15.92660976	-0.83277971	4.74893109	5.50207526	3.35203583	10.21588107
5962	59.61000000	-7.61463379	-0.80800915	8.29295463	8.91679606	-0.87207933	2.86661952	8.55961857	4.17090711	1.66125718	8.00582513	-4.16729787	2.57519174	9.94064784	-0.95700911	-0.13891561	9.32730130	1.56031134	-2.92724026	15.02189748	-0.37327700	4.12787201	5.58137322	3.18992109	10.13328395
5963	59.62000000	-7.57910076	-0.77750839	8.28391172	8.95433341	-0.92719218	2.97544706	8.40893902	4.72303936	1.54733537	8.11792789	-4.62149034	2.52893100	10.00502226	-1.08511727	-0.06280391	9.47167151	1.49417386	-2.99166548	14.63138372	0.43804392	3.95384080	5.09149268	3.13473114	10.64922696
5964	59.63000000	-7.58008707	-0.80922116	8.29112678	9.04114298	-0.97771496	2.93873548	8.54504622	4.95658296	1.63466515	8.02167113	-4.99276311	2.52507521	10.19089200	-1.27931785	-0.00327523	9.46518248	1.61792348	-3.11804216	14.22056543	0.73088059	3.76090574	5.35924669	2.89420588	10.38735979
5965	59.64000000	-7.58950430	-0.83213425	8.32900854	9.14106281	-0.96858970	2.96177357	8.85453817	4.42662578	1.87681615	7.84484695	-5.28859258	2.48409439	10.22747595	-1.35934802	-0.13376897	9.34677888	1.81835944	-3.15296041	13.88337820	0.60785013	3.40443568	5.52400143	3.03981488	10.27739791
5966	59.65000000	-7.56097968	-0.87982021	8.35919015	9.16171719	-0.97009455	3.00459262	9.21633650	3.56502315	2.28823081	7.61793052	-5.36396148	2.54752534	10.22300081	-1.79123288	-0.09134396	9.36157406	1.86898388	-3.13476030	13.59167177	0.26423731	2.82772218	5.44532892	2.98190220	10.36079884
5967	59.66000000	-7.53305271	-0.94047443	8.28412327	9.11835313	-0.94652171	2.90202292	9.52102121	2.63310944	2.35775981	7.55798769	-5.27926431	2.63545013	10.20139094	-2.22616614	-0.28716860	9.42313277	1.83733886	-2.99789358	13.35765154	0.49061722	2.02631247	5.14870040	3.10797541	10.71923478
5968	59.67000000	-7.58682404	-0.98795373	8.31875468	9.14453413	-0.82120512	2.80859821	9.83657467	1.62216119	2.42863040	7.70392866	-5.05926600	2.71897535	10.26700786	-2.44703308	-0.14331591	9.48392604	2.02416062	-3.00602979	13.16623995	1.24066444	1.31551191	5.09398233	2.82304665	10.79254580
5969	59.68000000	-7.65767372	-1.01179997	8.31439966	9.14477918	-0.71435421	2.71496785	9.91890648	0.69715947	2.62754002	8.02381219	-4.63927981	2.79543860	10.32339250	-2.42733694	-0.01912200	9.54242022	1.56854719	-2.89817024	13.03029202	1.93471501	0.66355586	5.68507791	3.25988766	10.32838670
5970	59.69000000	-7.82759740	-1.06483449	8.42652536	9.20280232	-0.58732330	2.64243982	9.71865171	0.08131432	2.71858633	8.38934637	-4.42240044	2.80762811	10.19314464	-2.11971500	0.07242244	9.54607437	1.50060957	-2.87235619	13.01957763	2.30764228	0.26326919	5.46803198	3.37157095	10.53456655
5971	59.70000000	-7.94401665	-1.07258411	8.55056900	9.29320514	-0.49104922	2.61849439	9.14511420	0.05055058	2.67472254	8.55357656	-4.32609428	2.85837732	10.20608266	-1.74411498	0.45343154	9.58009549	1.23427797	-2.91198401	12.95081849	2.47508927	-0.25325175	5.58753544	2.92972828	10.36459304
5972	59.71000000	-8.03788447	-1.09842730	8.64327799	9.44672270	-0.49413901	2.56421772	8.50898250	0.30412280	2.33708816	8.48699465	-4.45225884	2.82793404	10.13055190	-1.41042205	0.43539856	9.62869137	1.21241066	-3.03127305	12.32256862	1.96245086	-0.67070993	5.12236090	3.48373303	10.64550954
5973	59.72000000	-8.05968991	-1.04496005	8.67362749	9.55215402	-0.53516446	2.46173134	8.09644215	0.58210485	2.01790103	8.19507348	-4.85033612	2.76872522	10.07879454	-1.11451562	0.31234635	9.53059683	1.15851983	-3.19482729	11.97546347	1.67655393	-0.91779563	5.42250852	3.06616050	10.47737910
5974	59.73000000	-8.15245216	-0.98904168	8.69657413	9.74869097	-0.66922562	2.37682002	7.99819820	0.89810422	2.02156528	8.00762288	-5.35673957	2.70139349	10.04884484	-0.88096199	0.22304251	9.43013116	1.19467065	-3.23130163	10.85181428	1.44909546	-0.58803960	6.06188809	3.38551612	10.12618090
5975	59.74000000	-8.13519705	-0.98764304	8.71923931	9.86942478	-0.83363500	2.31932145	8.07628643	1.38200231	1.99723810	7.90276174	-5.81291852	2.64721970	9.98585824	-0.81140825	0.18394154	9.31636610	1.27597072	-3.24985039	8.80361130	-0.43035792	-0.93002127	6.07120767	3.20644211	9.92094000
5976	59.75000000	-8.10731213	-1.02492005	8.70776056	9.91713542	-1.03757624	2.29196335	8.24294147	2.44066265	2.19546624	7.97188416	-5.96644547	2.48042590	10.00951157	-0.88035699	0.02048593	9.37479234	1.35438047	-3.23862797	9.28666066	-0.89347250	-3.73788253	5.76629280	3.58238430	10.24222400
5977	59.76000000	-8.14522476	-1.05421470	8.66344890	10.04027689	-1.19958924	2.23283308	8.36211972	3.23000862	2.05213150	8.02424490	-5.93110835	2.27251554	10.04292096	-0.90898412	0.12781887	9.39881647	1.49818705	-3.21336282	8.87645282	4.06441144	-1.62610872	5.84650470	3.54227074	10.24615115
5978	59.77000000	-8.18465209	-1.02731443	8.67561327	10.11178861	-1.35214349	2.27658634	8.62667377	3.43008682	2.14773147	7.95446356	-5.56031907	2.09273289	10.05085748	-0.78345865	0.18214851	9.31452463	1.71857947	-3.21575710	6.54055588	2.47710666	4.06104513	6.29869349	3.41998744	9.87789838
5979	59.78000000	-8.19036431	-0.99952112	8.66586775	10.12254166	-1.41658373	2.55796539	9.14096647	3.30315388	1.93812988	8.12593151	-5.06144906	2.32032937	10.07150155	-0.73089742	0.38209065	9.40697541	1.79655507	-3.28475790	7.93125720	-3.58032490	12.65212011	6.17092715	3.69964377	9.99942406
